<?xml version="1.0" standalone="no"?>
<!DOCTYPE svg PUBLIC "-//W3C//DTD SVG 20010904//EN"
 "http://www.w3.org/TR/2001/REC-SVG-20010904/DTD/svg10.dtd">
<svg version="1.0" xmlns="http://www.w3.org/2000/svg"
 width="151px" height="35px" viewBox="0 0 4736.000000 1095.000000"
 preserveAspectRatio="xMidYMid meet">

<g transform="translate(0.000000,1095.000000) scale(0.100000,-0.100000)"
fill="#000000" stroke="none">
<path d="M40639 8116 c-167 -46 -309 -195 -349 -365 -17 -72 -8 -201 20 -273
46 -122 156 -232 279 -279 70 -26 197 -35 273 -20 87 18 174 67 242 135 190
191 192 482 3 671 -68 68 -135 107 -224 130 -68 18 -180 18 -244 1z"/>
<path d="M6645 7902 c-520 -59 -1309 -191 -1832 -306 -515 -113 -1052 -254
-1120 -292 -76 -43 -124 -129 -124 -218 0 -43 135 -601 183 -756 26 -85 100
-139 190 -140 26 0 82 11 125 24 726 228 1790 465 2768 615 214 33 229 38 267
77 69 74 65 125 -26 381 -151 425 -177 491 -212 532 -52 61 -137 93 -219 83z"/>
<path d="M26765 7863 c-221 -30 -582 -155 -737 -254 l-48 -31 0 -2009 0 -2009
470 0 470 0 0 2155 0 2155 -62 -1 c-35 -1 -76 -4 -93 -6z"/>
<path d="M37405 7863 c-222 -30 -582 -155 -743 -256 l-42 -27 2 -1922 3 -1921
87 -33 c322 -124 814 -204 1259 -204 445 0 814 100 1111 301 127 87 297 258
381 384 211 319 310 721 294 1190 -27 804 -424 1290 -1115 1364 -210 23 -379
7 -558 -50 -165 -53 -315 -133 -481 -259 l-43 -32 0 736 0 736 -62 -1 c-35 -1
-76 -4 -93 -6z m760 -1913 c207 -20 346 -73 455 -177 36 -33 80 -86 98 -116
148 -245 148 -705 0 -1003 -107 -217 -285 -348 -528 -391 -116 -21 -476 -8
-607 22 l-23 5 0 784 0 784 73 26 c104 37 184 55 284 65 126 12 127 12 248 1z"/>
<path d="M10255 7709 c-196 -14 -773 -83 -877 -105 l-28 -6 0 -2019 0 -2019
803 0 c480 0 848 4 917 11 697 63 1230 441 1362 965 30 117 32 390 5 527 -74
370 -295 611 -685 748 l-93 32 86 43 c187 93 315 215 390 368 69 141 80 193
80 391 0 147 -3 181 -23 250 -126 439 -553 732 -1182 811 -125 15 -562 17
-755 3z m678 -798 c152 -39 245 -108 302 -224 58 -119 58 -271 0 -387 -30 -59
-112 -135 -180 -166 -104 -48 -177 -57 -475 -58 l-275 -1 0 415 0 415 55 8
c212 30 448 29 573 -2z m167 -1650 c209 -63 305 -169 330 -366 19 -152 -23
-287 -119 -378 -65 -63 -128 -97 -233 -128 -68 -21 -98 -23 -425 -27 l-353 -4
0 467 0 467 363 -4 c340 -4 367 -6 437 -27z"/>
<path d="M21060 6754 c-623 -40 -1084 -276 -1366 -700 -239 -358 -324 -886
-223 -1387 174 -866 948 -1308 1974 -1127 216 38 555 140 555 168 0 12 -160
734 -164 739 -1 1 -53 -14 -116 -33 -191 -58 -328 -77 -515 -71 -276 8 -436
66 -578 207 -92 93 -146 195 -179 342 -25 112 -29 334 -9 448 58 326 255 525
591 597 130 28 398 25 548 -5 132 -27 122 -30 192 73 97 144 170 317 209 498
30 137 29 144 -16 156 -237 62 -684 109 -903 95z"/>
<path d="M23652 6750 c-415 -34 -756 -183 -1018 -444 -214 -215 -342 -457
-410 -780 -21 -98 -27 -160 -31 -327 -8 -282 16 -470 87 -681 214 -639 785
-1018 1531 -1018 623 0 1114 244 1397 695 287 459 320 1199 76 1714 -215 454
-630 748 -1165 825 -137 19 -339 26 -467 16z m352 -830 c246 -63 401 -231 472
-511 25 -99 30 -390 10 -507 -44 -252 -160 -429 -339 -517 -110 -54 -183 -69
-327 -69 -151 1 -232 18 -341 75 -224 117 -349 379 -349 734 0 278 73 489 220
635 85 85 162 129 280 159 104 27 270 28 374 1z"/>
<path d="M28918 6749 c-483 -39 -893 -252 -1154 -599 -76 -101 -182 -308 -223
-437 -118 -365 -112 -848 15 -1214 218 -629 784 -999 1529 -999 847 0 1446
463 1594 1233 49 251 49 553 0 791 -136 668 -610 1112 -1290 1210 -138 19
-339 26 -471 15z m337 -824 c239 -50 410 -225 483 -493 24 -90 26 -112 26
-307 0 -195 -2 -217 -26 -307 -37 -137 -98 -248 -178 -328 -122 -122 -263
-174 -470 -174 -210 0 -339 46 -464 164 -80 76 -127 148 -163 248 -48 132 -58
203 -57 407 0 172 3 199 27 287 71 267 236 441 470 499 90 22 257 24 352 4z"/>
<path d="M17495 6744 c-22 -2 -85 -9 -140 -15 -417 -43 -848 -172 -1127 -336
l-78 -45 0 -381 c0 -210 -3 -838 -7 -1394 l-6 -1013 476 0 477 0 0 1173 0
1174 53 11 c178 39 415 47 546 18 227 -49 364 -191 390 -406 7 -54 11 -429 11
-1027 l0 -943 465 0 465 0 -2 1198 -3 1197 -23 70 c-124 367 -452 607 -952
696 -111 20 -439 34 -545 23z"/>
<path d="M32403 6740 c-415 -40 -826 -163 -1110 -332 l-103 -61 0 -1394 0
-1393 470 0 470 0 0 1173 0 1174 53 11 c181 40 419 47 547 17 193 -44 307
-140 363 -305 l22 -65 3 -1002 3 -1003 464 0 465 0 0 958 c0 574 -4 993 -10
1047 -6 50 -22 137 -36 193 -14 57 -24 105 -22 107 2 1 40 14 84 28 268 84
559 81 735 -8 67 -35 149 -112 182 -173 58 -106 57 -89 57 -1164 l0 -988 465
0 465 0 -2 1198 c-3 1130 -4 1201 -22 1262 -106 373 -419 620 -891 706 -136
25 -439 25 -580 1 -303 -53 -606 -165 -831 -307 -19 -12 -26 -10 -65 22 -174
140 -402 240 -644 284 -106 19 -399 26 -532 14z"/>
<path d="M40585 6739 c-82 -11 -205 -40 -258 -62 l-37 -16 0 -1550 0 -1551
475 0 475 0 -2 1553 -3 1552 -80 27 c-153 51 -384 70 -570 47z"/>
<path d="M13850 6726 c-140 -18 -260 -41 -403 -77 -147 -37 -454 -136 -462
-150 -9 -14 71 -250 118 -347 49 -102 123 -187 192 -219 67 -31 130 -30 395 6
328 45 454 55 568 42 194 -21 294 -82 353 -215 22 -50 49 -178 49 -231 l0 -33
-122 -7 c-955 -52 -1467 -260 -1675 -680 -109 -219 -130 -502 -55 -729 131
-399 616 -619 1302 -591 638 26 1069 130 1388 335 l82 52 0 891 c0 587 -4 923
-11 982 -43 349 -188 602 -442 766 -144 93 -298 148 -533 190 -153 27 -579 36
-744 15z m810 -2094 c0 -309 10 -279 -110 -336 -122 -58 -214 -78 -387 -83
-274 -9 -397 33 -466 162 -18 32 -22 57 -22 130 0 109 17 148 99 222 126 115
351 169 724 172 l162 1 0 -268z"/>
<path d="M42790 6726 c-151 -20 -266 -42 -420 -82 -176 -46 -440 -134 -446
-148 -7 -19 84 -274 128 -359 81 -155 175 -227 297 -227 37 0 163 13 282 29
429 59 588 61 722 11 148 -55 227 -178 244 -377 l6 -73 -29 0 c-66 0 -358 -22
-484 -36 -785 -89 -1233 -360 -1350 -818 -43 -170 -45 -388 -4 -526 124 -421
613 -654 1314 -625 640 26 1087 134 1398 339 l73 48 -4 952 c-4 1038 -1 993
-63 1181 -129 389 -421 611 -919 696 -155 27 -583 35 -745 15z m808 -2098 l-3
-272 -40 -28 c-54 -37 -185 -84 -292 -104 -67 -12 -125 -15 -243 -12 -136 4
-164 8 -225 31 -89 33 -146 90 -169 167 -72 244 117 422 497 470 132 16 144
17 315 18 l162 2 -2 -272z"/>
<path d="M7255 6345 c-1193 -169 -2299 -435 -3301 -794 -474 -169 -975 -375
-1030 -423 -39 -34 -81 -115 -90 -173 -5 -37 34 -262 130 -743 35 -173 76
-222 186 -222 42 0 85 15 248 86 1299 568 2611 953 4167 1224 309 53 323 58
360 121 39 67 29 121 -89 477 -73 217 -118 338 -140 370 -36 54 -104 98 -161
106 -22 2 -148 -11 -280 -29z"/>
<path d="M7475 4733 c-992 -215 -1817 -435 -2631 -704 -226 -74 -277 -95 -311
-124 -54 -46 -83 -107 -83 -173 0 -61 186 -751 217 -804 28 -49 103 -95 166
-103 64 -7 35 -16 652 192 797 270 1567 496 2220 654 150 36 175 48 204 99 36
64 29 123 -40 341 -107 343 -148 468 -163 498 -24 46 -101 107 -151 120 -46
11 -47 11 -80 4z"/>
</g>
</svg>
