<?xml version="1.0" encoding="UTF-8"?>
<svg width="200px" height="87px" viewBox="0 0 243 85" version="1.1" xmlns="http://www.w3.org/2000/svg" xmlns:xlink="http://www.w3.org/1999/xlink">
    <!-- Generator: Sketch 64 (93537) - https://sketch.com -->
    <title>logos/Bancolombia/horizontal/primario</title>
    <desc>Created with Sketch.</desc>
    <g id="logos/Bancolombia/horizontal/primario" stroke="none" stroke-width="1" fill="none" fill-rule="evenodd">
        <path d="M33.9652,66.9573 C32.7232,66.9573 30.5762,66.8973 28.0002,66.8973 L28.0002,46.0363 C29.7292,45.9463 32.3882,45.8843 34.9032,45.8843 C39.3222,45.8843 41.7732,47.7093 41.7732,51.0543 C41.7732,53.1273 40.4732,54.9493 38.5382,55.7223 L38.5382,55.7803 C40.9552,56.3083 42.1692,58.3543 42.1692,60.4553 C42.1692,63.4883 40.1402,66.9573 33.9652,66.9573 M34.2392,49.1333 C33.4192,49.1333 32.6332,49.1623 31.9342,49.1933 L31.9342,54.6393 C32.4242,54.6723 32.9062,54.6723 33.5422,54.6723 C36.2332,54.6723 37.6282,53.5533 37.6282,51.6993 C37.6282,50.1513 36.7192,49.1333 34.2392,49.1333 M33.6612,57.6703 C33.3602,57.6703 32.3602,57.6703 31.9342,57.7043 L31.9342,63.5523 C32.4242,63.6163 33.1782,63.6763 34.0892,63.6763 C36.6562,63.6763 37.9622,62.4383 37.9622,60.5523 C37.9622,58.5093 36.2332,57.6703 33.6612,57.6703" id="Fill-1" fill="#063E85"></path>
        <path d="M52.596,66.929 C52.596,65.986 52.629,65.01 52.756,64.164 L52.722,64.132 C51.958,65.954 50.022,67.219 47.671,67.219 C44.812,67.219 43.157,65.564 43.157,62.965 C43.157,59.102 46.904,57.05 52.279,57.05 L52.279,56.172 C52.279,54.489 51.486,53.608 49.196,53.608 C47.765,53.608 45.859,54.094 44.525,54.876 L44.176,51.397 C45.761,50.812 47.797,50.389 49.831,50.389 C54.917,50.389 56.348,52.473 56.348,56.012 L56.473,66.885 L52.596,66.929 Z M52.279,59.745 C47.985,59.745 47.033,61.013 47.033,62.314 C47.033,63.354 47.733,64.034 48.909,64.034 C50.914,64.034 52.279,62.084 52.279,60.138 L52.279,59.745 Z" id="Fill-3" fill="#063E85"></path>
        <path d="M182.6092,66.929 C182.6092,65.986 182.6462,65.01 182.7712,64.164 L182.7382,64.132 C181.9792,65.954 180.0372,67.219 177.6842,67.219 C174.8252,67.219 173.1732,65.564 173.1732,62.965 C173.1732,59.102 176.9192,57.05 182.2972,57.05 L182.2972,56.172 C182.2972,54.489 181.4962,53.608 179.2102,53.608 C177.7792,53.608 175.8802,54.094 174.5382,54.876 L174.1912,51.397 C175.7762,50.812 177.8092,50.389 179.8452,50.389 C184.9332,50.389 186.3632,52.473 186.3632,56.012 L186.4882,66.885 L182.6092,66.929 Z M182.2972,59.745 C177.9992,59.745 177.0472,61.013 177.0472,62.314 C177.0472,63.354 177.7502,64.034 178.9212,64.034 C180.9242,64.034 182.2972,62.084 182.2972,60.138 L182.2972,59.745 Z" id="Fill-5" fill="#063E85"></path>
        <path d="M81.1102,67.1907 C76.7182,67.1907 73.9872,64.8487 73.9872,59.3567 C73.9872,54.3217 76.5632,50.4577 82.1562,50.4577 C83.2382,50.4577 84.3802,50.6177 85.3992,50.9147 L84.9872,54.5177 C84.1282,54.1887 83.1412,53.9317 82.1252,53.9317 C79.5512,53.9317 78.2462,55.8867 78.2462,58.9327 C78.2462,61.6977 79.2932,63.5847 81.9942,63.5847 C83.0802,63.5847 84.2532,63.3537 85.1162,62.9007 L85.4282,66.4397 C84.3452,66.8637 82.7912,67.1907 81.1102,67.1907" id="Fill-7" fill="#063E85"></path>
        <path d="M93.7596,67.219 C89.2826,67.219 86.3876,64.849 86.3876,59.102 C86.3876,54.062 89.6626,50.419 94.4616,50.419 C98.9396,50.419 101.8326,52.956 101.8326,58.515 C101.8326,63.584 98.4986,67.219 93.7596,67.219 M94.1746,53.931 C92.3636,53.931 90.5856,55.365 90.5856,58.673 C90.5856,61.987 91.7606,63.678 94.1106,63.678 C96.1126,63.678 97.6386,62.027 97.6386,58.743 C97.6386,55.622 96.5586,53.931 94.1746,53.931" id="Fill-9" fill="#063E85"></path>
        <path d="M116.6722,67.219 C112.1932,67.219 109.2982,64.849 109.2982,59.102 C109.2982,54.062 112.5722,50.419 117.3742,50.419 C121.8542,50.419 124.7452,52.956 124.7452,58.515 C124.7452,63.584 121.4102,67.219 116.6722,67.219 M117.0912,53.931 C115.2762,53.931 113.4942,55.365 113.4942,58.673 C113.4942,61.987 114.6692,63.678 117.0272,63.678 C119.0222,63.678 120.5542,62.027 120.5542,58.743 C120.5542,55.622 119.4722,53.931 117.0912,53.931" id="Fill-11" fill="#063E85"></path>
        <path d="M171.6766,66.8968 L167.3526,66.8968 L167.3526,50.8128 C169.3586,50.5528 169.3216,50.6488 171.6766,50.7128 L171.6766,66.8968 Z M169.6406,48.6688 C168.2766,48.6688 167.1316,47.5308 167.1316,46.1318 C167.1316,44.7688 168.2766,43.6328 169.6406,43.6328 C171.0436,43.6328 172.1806,44.7368 172.1806,46.1318 C172.1806,47.5308 171.0436,48.6688 169.6406,48.6688 L169.6406,48.6688 Z" id="Fill-13" fill="#063E85"></path>
        <path d="M67.7347,50.389 C65.1637,50.389 63.3167,51.724 62.3597,53.642 L62.3307,53.608 L62.4377,50.714 C61.0157,50.844 59.7417,51.138 58.6727,51.592 L58.6727,66.897 L62.7717,66.897 L62.7717,59.102 C62.7717,56.27 64.3977,53.87 66.4627,53.87 C67.9527,53.87 68.4037,54.875 68.4037,56.563 L68.4037,66.897 L72.4387,66.897 L72.4387,55.556 C72.4387,52.731 71.2947,50.389 67.7347,50.389" id="Fill-15" fill="#063E85"></path>
        <path d="M103.6038,45.2435 L103.6038,66.8965 L107.5318,66.8965 L107.5318,44.2805 C106.0348,44.4235 104.7048,44.7475 103.6038,45.2435" id="Fill-17" fill="#063E85"></path>
        <path d="M160.1531,51.2083 C158.0341,51.2083 156.3651,52.2623 155.6131,53.9283 L155.5781,53.9283 C155.7301,53.1273 155.8191,51.8523 155.8191,50.9253 L155.8191,44.2803 C154.3211,44.4303 152.9971,44.7573 151.8991,45.2633 L151.8991,66.4563 C153.6161,66.9573 155.3701,67.2063 157.5471,67.2063 C162.7241,67.2063 165.6911,63.6163 165.6911,58.4143 C165.6911,53.8693 163.7521,51.2083 160.1531,51.2083 M157.8211,64.0463 C156.9981,64.0463 156.3651,63.9533 155.8191,63.7693 L155.8191,59.4363 C155.8191,56.8703 157.0331,54.4893 159.0281,54.4893 C160.7901,54.4893 161.6051,55.9383 161.6051,58.8183 C161.6051,62.6223 160.0271,64.0463 157.8211,64.0463" id="Fill-19" fill="#063E85"></path>
        <path d="M144.9681,50.389 C142.3001,50.389 140.5491,52.046 139.8191,53.642 C139.4371,52.08 138.2631,50.389 135.4621,50.389 C133.1151,50.389 131.2061,51.658 130.2541,53.642 L130.2191,53.642 C130.3401,52.775 130.4001,51.523 130.4101,50.726 C128.9421,50.87 127.6421,51.187 126.5601,51.681 L126.5601,66.897 L130.6381,66.897 L130.6381,59.163 C130.6381,56.145 132.3821,53.87 134.2581,53.87 C135.8191,53.87 136.1341,55.066 136.1341,56.66 L136.1341,66.897 L140.1401,66.897 L140.1401,59.163 C140.1401,56.012 141.9831,53.87 143.7611,53.87 C145.2531,53.87 145.6411,54.939 145.6411,56.66 L145.6411,66.897 L149.7071,66.897 L149.7071,55.78 C149.7071,52.114 148.0201,50.389 144.9681,50.389" id="Fill-21" fill="#063E85"></path>
        <path d="M216.2361,45.0037 L216.2211,44.9637 C216.2211,44.9637 214.3431,39.7897 214.3391,39.7757 C214.2251,39.5037 214.0911,39.2707 213.9501,39.0647 C214.6701,38.8757 215.2431,38.4747 215.5691,37.8877 C215.7191,37.6107 215.8601,37.2267 215.8601,36.7417 C215.8601,36.4027 215.7951,36.0167 215.6151,35.5857 L213.9481,31.3337 C213.4821,30.4087 212.8871,29.6397 211.5851,29.3717 C211.8371,28.7107 211.7641,27.9617 211.3421,27.2947 L211.4621,27.5217 L209.9481,24.0267 L209.9011,23.9437 C209.0721,22.5207 208.0101,22.3547 207.3081,22.2417 C204.9841,21.8717 199.8871,21.9337 195.6801,22.3767 C193.7211,22.5437 191.5911,22.8477 188.9941,23.3277 C187.0611,23.7167 184.5101,24.2607 181.7631,25.0677 C180.8001,25.3747 180.1501,25.8737 179.7961,26.5717 C179.6511,26.8537 179.5221,27.2507 179.5221,27.7487 C179.5221,28.0587 179.5711,28.4067 179.7041,28.7937 L181.0391,32.6517 C181.1351,32.9307 181.3921,33.4727 181.8821,33.9167 C180.6761,34.3447 176.9931,35.6377 176.9931,35.6377 C175.4571,36.2427 174.4871,37.5757 174.4871,38.9497 C174.4871,39.1567 174.5101,39.3607 174.5521,39.5647 C174.5621,39.6047 175.9941,45.3547 175.9941,45.3547 C176.2491,46.2287 176.8071,46.8957 177.5831,47.2797 C178.4481,47.7157 179.5241,47.7447 180.5251,47.3607 C182.8051,46.4957 185.2931,45.6597 187.8471,44.8797 C187.6761,45.5277 187.7081,46.2287 187.9541,46.9297 C187.9541,46.9297 190.4301,53.9357 190.4431,53.9797 C191.0921,55.8767 193.0461,56.8697 194.9251,56.2287 L206.7731,51.7847 L212.6831,49.5097 L214.5431,48.7837 C216.1081,48.1457 216.7401,46.7347 216.2361,45.0037" id="Fill-23" fill="#FFFFFF"></path>
        <path d="M214.6951,45.4539 C214.9221,46.2289 214.8481,46.9249 213.9321,47.3009 C212.8361,47.7469 212.0211,48.0399 210.6701,48.5709 C209.9771,48.8329 209.3111,49.0919 208.5471,49.3869 C207.8041,49.6669 207.0381,49.9709 206.2021,50.2839 C202.8711,51.5589 199.0921,52.9809 194.3691,54.7239 C193.3581,55.0679 192.3301,54.5399 191.9581,53.4569 C191.1851,50.9819 190.3091,48.5859 189.4551,46.3569 C189.0921,45.3329 189.6231,44.4059 190.6101,44.1049 C193.0081,43.4299 195.1511,42.8979 197.2341,42.3889 C199.3021,41.8779 201.1271,41.4469 202.8681,41.0629 C206.3591,40.2689 208.6011,39.7899 210.9871,39.3729 C212.1391,39.1699 212.5521,39.6659 212.8611,40.4019 C213.5411,42.0519 214.1361,43.7139 214.6951,45.4539" id="Fill-26" fill="#E30520"></path>
        <path d="M212.4529,31.9227 C212.1219,31.2727 211.8299,30.8927 210.6289,30.8707 C207.2899,30.8007 203.4039,31.0527 197.5439,31.9187 C194.6049,32.3497 191.4349,32.9587 187.9819,33.8157 C186.2489,34.2747 184.5309,34.7077 182.7849,35.3007 C180.9559,35.8647 179.2789,36.4697 177.5679,37.1327 C176.5569,37.5367 175.9519,38.4457 176.1179,39.2237 C176.5599,41.0367 177.0119,42.8597 177.5489,44.9597 C177.8119,45.8677 178.8539,46.2817 179.9529,45.8627 C183.7759,44.4117 187.7689,43.1617 191.5039,42.1507 C195.2579,41.1637 198.4619,40.4257 201.4049,39.7767 C207.2369,38.5097 210.2919,38.1027 213.4229,37.5537 C214.1339,37.4267 214.4469,36.9647 214.1319,36.1927 L212.4529,31.9227 Z" id="Fill-28" fill="#FFD300"></path>
        <path d="M208.5154,24.7474 C208.0664,23.9814 207.6284,23.9124 207.0454,23.8234 C204.9304,23.4864 199.9784,23.5344 195.8324,23.9744 C193.7444,24.1504 191.6174,24.4704 189.2884,24.9034 C186.9754,25.3674 184.6494,25.8934 182.2174,26.6124 C181.3994,26.8664 180.9024,27.3394 181.2214,28.2794 C181.6524,29.5504 182.0364,30.6284 182.5534,32.1274 C182.8984,33.1194 183.7544,33.1264 184.6624,32.8514 C187.3824,32.0484 189.9654,31.4304 192.4934,30.9344 C195.0314,30.4264 197.2844,30.1104 199.4374,29.8184 C203.7564,29.2984 207.4614,29.1874 209.5464,29.1594 C210.0234,29.1504 210.3464,28.7184 209.9904,28.1604 L208.5154,24.7474 Z" id="Fill-30" fill="#063E85"></path>
    </g>
</svg>