<?xml version="1.0" encoding="UTF-8"?>
<svg width="134px" height="33px" viewBox="0 0 134 33" version="1.1" xmlns="http://www.w3.org/2000/svg" xmlns:xlink="http://www.w3.org/1999/xlink">
    <title>Artboard</title>
    <defs>
        <polygon id="path-1" points="0.338765021 0.542105882 29.4922387 0.542105882 29.4922387 24.4357864 0.338765021 24.4357864"></polygon>
    </defs>
    <g id="Artboard" stroke="none" stroke-width="1" fill="none" fill-rule="evenodd">
        <g id="logos/Bancolombia/horizontal/primario" transform="translate(1.000000, 0.000000)">
            <g id="logo" transform="translate(0.473251, 0.576471)">
                <path d="M4.14863704,31.8997729 C3.28485926,31.8997729 1.79167819,31.8581259 0.00013909465,31.8581259 L0.00013909465,17.3781376 C1.20261235,17.3156671 3.05187572,17.2726318 4.80099095,17.2726318 C7.87428724,17.2726318 9.57889218,18.5393965 9.57889218,20.86122 C9.57889218,22.3001259 8.67477695,23.5648082 7.32903621,24.1013612 L7.32903621,24.14162 C9.00999506,24.5081141 9.85429959,25.9282788 9.85429959,27.38662 C9.85429959,29.4918788 8.44318436,31.8997729 4.14863704,31.8997729 M4.33919671,19.52782 C3.76890864,19.52782 3.22226667,19.5479494 2.73613086,19.5694671 L2.73613086,23.3496318 C3.07691276,23.3725376 3.41213086,23.3725376 3.85445185,23.3725376 C5.72597037,23.3725376 6.69615556,22.59582 6.69615556,21.3089259 C6.69615556,20.2344318 6.06397037,19.52782 4.33919671,19.52782 M3.93721317,25.4535024 C3.72787572,25.4535024 3.03240247,25.4535024 2.73613086,25.4771024 L2.73613086,29.5363024 C3.07691276,29.5807259 3.60129959,29.6223729 4.23487572,29.6223729 C6.02015556,29.6223729 6.92844362,28.7630553 6.92844362,27.4539494 C6.92844362,26.0358671 5.72597037,25.4535024 3.93721317,25.4535024" id="Fill-1" fill="#063E85"></path>
                <path d="M17.1058601,31.8801294 C17.1058601,31.2255765 17.1288107,30.5481176 17.2171358,29.9608941 L17.1934897,29.9386824 C16.6621481,31.2033647 15.3157119,32.0814235 13.6806543,32.0814235 C11.6922963,32.0814235 10.5412881,30.9326588 10.5412881,29.1286471 C10.5412881,26.4472706 13.1472263,25.0229412 16.8853951,25.0229412 L16.8853951,24.4135059 C16.8853951,23.2453059 16.3338848,22.6337882 14.741251,22.6337882 C13.7460288,22.6337882 12.4204568,22.9711294 11.4926955,23.5139294 L11.2499753,21.0990941 C12.3523004,20.6930353 13.768284,20.3994235 15.1828765,20.3994235 C18.7200535,20.3994235 19.7152757,21.8459647 19.7152757,24.3024471 L19.8022099,31.8495882 L17.1058601,31.8801294 Z M16.8853951,26.8935882 C13.8990329,26.8935882 13.2369424,27.7737294 13.2369424,28.6767765 C13.2369424,29.3986588 13.7237737,29.8706588 14.5416502,29.8706588 C15.9360741,29.8706588 16.8853951,28.5171294 16.8853951,27.1663765 L16.8853951,26.8935882 Z" id="Fill-3" fill="#063E85"></path>
                <path d="M107.526563,31.8801294 C107.526563,31.2255765 107.552295,30.5481176 107.63923,29.9608941 L107.616279,29.9386824 C107.088415,31.2033647 105.737806,32.0814235 104.101357,32.0814235 C102.112999,32.0814235 100.964077,30.9326588 100.964077,29.1286471 C100.964077,26.4472706 103.56932,25.0229412 107.309575,25.0229412 L107.309575,24.4135059 C107.309575,23.2453059 106.752501,22.6337882 105.162649,22.6337882 C104.167427,22.6337882 102.846723,22.9711294 101.913398,23.5139294 L101.672069,21.0990941 C102.774394,20.6930353 104.188291,20.3994235 105.604275,20.3994235 C109.142843,20.3994235 110.13737,21.8459647 110.13737,24.3024471 L110.224304,31.8495882 L107.526563,31.8801294 Z M107.309575,26.8935882 C104.320431,26.8935882 103.658341,27.7737294 103.658341,28.6767765 C103.658341,29.3986588 104.147258,29.8706588 104.961658,29.8706588 C106.354691,29.8706588 107.309575,28.5171294 107.309575,27.1663765 L107.309575,26.8935882 Z" id="Fill-5" fill="#063E85"></path>
                <path d="M36.9367235,32.06178 C33.8822049,32.06178 31.9828675,30.4361565 31.9828675,26.6240624 C31.9828675,23.12918 33.7744066,20.4471094 37.6641885,20.4471094 C38.4166905,20.4471094 39.210921,20.5581682 39.9196082,20.7643212 L39.6330733,23.2652271 C39.0356617,23.0368624 38.3492296,22.8584741 37.6426288,22.8584741 C35.8524807,22.8584741 34.9448881,24.2154741 34.9448881,26.3297565 C34.9448881,28.2489918 35.6730486,29.5587918 37.5515218,29.5587918 C38.3068058,29.5587918 39.1225959,29.3984506 39.7227893,29.0840153 L39.939777,31.5404976 C39.1865794,31.8348035 38.105814,32.06178 36.9367235,32.06178" id="Fill-7" fill="#063E85"></path>
                <path d="M45.7340428,32.0814235 C42.6204091,32.0814235 40.607014,30.4363647 40.607014,26.4472706 C40.607014,22.9489176 42.8846889,20.4202471 46.222265,20.4202471 C49.3365942,20.4202471 51.3485984,22.1812235 51.3485984,26.0398235 C51.3485984,29.5583059 49.0298905,32.0814235 45.7340428,32.0814235 M46.0226642,22.8579882 C44.7631621,22.8579882 43.5266107,23.8533529 43.5266107,26.1494941 C43.5266107,28.4498 44.3437918,29.6235529 45.9781539,29.6235529 C47.3704914,29.6235529 48.4317835,28.4775647 48.4317835,26.1980824 C48.4317835,24.0317412 47.6806724,22.8579882 46.0226642,22.8579882" id="Fill-9" fill="#063E85"></path>
                <path d="M61.6691432,32.0814235 C58.5541185,32.0814235 56.5407235,30.4363647 56.5407235,26.4472706 C56.5407235,22.9489176 58.8177029,20.4202471 62.1573654,20.4202471 C65.2730856,20.4202471 67.2836988,22.1812235 67.2836988,26.0398235 C67.2836988,29.5583059 64.9642955,32.0814235 61.6691432,32.0814235 M61.9605465,22.8579882 C60.6982626,22.8579882 59.4589292,23.8533529 59.4589292,26.1494941 C59.4589292,28.4498 60.2761103,29.6235529 61.9160362,29.6235529 C63.3035053,29.6235529 64.3689704,28.4775647 64.3689704,26.1980824 C64.3689704,24.0317412 63.6164683,22.8579882 61.9605465,22.8579882" id="Fill-11" fill="#063E85"></path>
                <path d="M99.9232321,31.8577788 L96.9160058,31.8577788 L96.9160058,20.6935906 C98.3111251,20.51312 98.2853926,20.5797553 99.9232321,20.6241788 L99.9232321,31.8577788 Z M98.5072486,19.2054024 C97.558623,19.2054024 96.7623062,18.4154965 96.7623062,17.4444259 C96.7623062,16.4983435 97.558623,15.7098259 98.5072486,15.7098259 C99.4829975,15.7098259 100.273751,16.4761318 100.273751,17.4444259 C100.273751,18.4154965 99.4829975,19.2054024 98.5072486,19.2054024 L98.5072486,19.2054024 Z" id="Fill-13" fill="#063E85"></path>
                <path d="M27.634421,20.3994235 C25.8463593,20.3994235 24.5618202,21.3260706 23.8962523,22.6573882 L23.8760835,22.6337882 L23.9504992,20.6250118 C22.9615362,20.7152471 22.0755033,20.9193176 21.3320424,21.2344471 L21.3320424,31.8579176 L24.1827872,31.8579176 L24.1827872,26.4472706 C24.1827872,24.4815294 25.3136267,22.8156471 26.749779,22.8156471 C27.7860342,22.8156471 28.0996926,23.5132353 28.0996926,24.6849059 L28.0996926,31.8579176 L30.9059272,31.8579176 L30.9059272,23.9859294 C30.9059272,22.0250471 30.1103058,20.3994235 27.634421,20.3994235" id="Fill-15" fill="#063E85"></path>
                <path d="M52.5804206,16.8278412 L52.5804206,31.8575706 L55.3122395,31.8575706 L55.3122395,16.1594059 C54.271116,16.2586647 53.3461366,16.4835588 52.5804206,16.8278412" id="Fill-17" fill="#063E85"></path>
                <path d="M91.9089461,20.9681141 C90.4352383,20.9681141 89.2744934,21.6997141 88.7514975,22.8561141 L88.727156,22.8561141 C88.8328679,22.3001259 88.894765,21.4151259 88.894765,20.7716788 L88.894765,16.1592671 C87.8529461,16.2633847 86.9321395,16.4903612 86.1685099,16.8415847 L86.1685099,31.55202 C87.3626374,31.8997729 88.5824975,32.0726082 90.0965428,32.0726082 C93.6970078,32.0726082 95.760477,29.5807259 95.760477,25.9699259 C95.760477,22.8151612 94.4119543,20.9681141 91.9089461,20.9681141 M90.2871025,29.8791965 C89.714728,29.8791965 89.2744934,29.8146435 88.894765,29.6869259 L88.894765,26.6793141 C88.894765,24.8982082 89.7390695,23.2455141 91.1265387,23.2455141 C92.3519626,23.2455141 92.9187733,24.2512906 92.9187733,26.2503494 C92.9187733,28.8907729 91.8213165,29.8791965 90.2871025,29.8791965" id="Fill-19" fill="#063E85"></path>
                <path d="M81.3481848,20.3994235 C79.4926621,20.3994235 78.2748885,21.5495765 77.767193,22.6573882 C77.5015222,21.5731765 76.6850366,20.3994235 74.737016,20.3994235 C73.1047403,20.3994235 71.7770819,21.2802588 71.1149914,22.6573882 L71.0906498,22.6573882 C71.1748021,22.0555882 71.2165305,21.1865529 71.2234852,20.6333412 C70.2025305,20.7332941 69.2984152,20.9533294 68.5459132,21.2962235 L68.5459132,31.8579176 L71.3820531,31.8579176 L71.3820531,26.4896118 C71.3820531,24.3947647 72.5949584,22.8156471 73.8996663,22.8156471 C74.9853,22.8156471 75.2043741,23.6458118 75.2043741,24.7522353 L75.2043741,31.8579176 L77.9904399,31.8579176 L77.9904399,26.4896118 C77.9904399,24.3024471 79.2721971,22.8156471 80.5087486,22.8156471 C81.5463947,22.8156471 81.8162383,23.5576588 81.8162383,24.7522353 L81.8162383,31.8579176 L84.6440325,31.8579176 L84.6440325,24.1414118 C84.6440325,21.5967765 83.4707691,20.3994235 81.3481848,20.3994235" id="Fill-21" fill="#063E85"></path>
                <g id="Group-25" transform="translate(101.539095, 0.152081)">
                    <mask id="mask-2" fill="white">
                        <use xlink:href="#path-1"></use>
                    </mask>
                    <g id="Clip-24"></g>
                    <path d="M29.3740778,16.5093106 L29.3636457,16.4815459 C29.3636457,16.4815459 28.0575469,12.8901812 28.054765,12.8804635 C27.9754811,12.6916635 27.8822877,12.5299341 27.7842259,12.3869459 C28.2849667,12.2557576 28.6834728,11.9774165 28.9101971,11.5699694 C29.0145181,11.3776988 29.1125798,11.1111576 29.1125798,10.7745106 C29.1125798,10.5392047 29.0673741,10.2712753 28.9421889,9.97211059 L27.782835,7.02072235 C27.4587444,6.37866353 27.0449379,5.84488706 26.1394317,5.65886353 C26.3146909,5.20005176 26.2639214,4.68015765 25.9704317,4.21718118 L26.0538885,4.37474588 L25.000942,1.94880471 L24.9682547,1.89119294 C24.3917074,0.903463529 23.6531148,0.78824 23.1648926,0.709804706 C21.5486128,0.452981176 18.0037856,0.496016471 15.0779296,0.803510588 C13.7154975,0.919428235 12.2341395,1.13044 10.4279955,1.46361647 C9.08364568,1.73362824 7.30949342,2.11122824 5.3990284,2.67138118 C4.72928765,2.88447529 4.27723004,3.23084 4.03103251,3.71533412 C3.93018889,3.91107529 3.84047284,4.18664 3.84047284,4.53231059 C3.84047284,4.74748706 3.87455103,4.98904 3.96704897,5.25766353 L4.89550576,7.93556941 C4.96227119,8.12922824 5.14100782,8.50544 5.48178971,8.81362824 C4.64304897,9.11071059 2.08162099,10.0082047 2.08162099,10.0082047 C1.01337407,10.4281459 0.338765021,11.3534047 0.338765021,12.3071224 C0.338765021,12.4508047 0.354760905,12.5924047 0.383970782,12.7340047 C0.390925514,12.7617694 1.38684321,16.7529459 1.38684321,16.7529459 C1.56418889,17.3596047 1.95226296,17.8225812 2.49195021,18.0891224 C3.09353457,18.3917576 3.84186379,18.4118871 4.53803251,18.1453459 C6.12371152,17.5449341 7.85404897,16.9646518 9.63028765,16.42324 C9.51136173,16.8730282 9.53361687,17.3596047 9.70470329,17.8461812 C9.70470329,17.8461812 11.4266951,22.7091694 11.4357362,22.7397106 C11.8870984,24.0564518 13.2460531,24.7457106 14.5528473,24.3007812 L22.7928144,21.2161224 L26.9030613,19.6370047 L28.1966416,19.1330753 C29.2850572,18.6902282 29.7245963,17.7108282 29.3740778,16.5093106" id="Fill-23" fill="#FFFFFF" mask="url(#mask-2)"></path>
                </g>
                <path d="M129.841448,16.9738835 C129.999321,17.5118247 129.947856,17.9949306 129.310802,18.2559188 C128.548563,18.5654953 127.981753,18.7688718 127.042168,19.1374482 C126.560205,19.3193071 126.09702,19.4990835 125.565679,19.7038482 C125.048942,19.8982012 124.516209,20.1092129 123.934794,20.3264718 C121.618172,21.2114718 118.989979,22.1985071 115.705259,23.4083541 C115.002135,23.6471306 114.287189,23.2806365 114.028473,22.5289071 C113.490872,20.8109659 112.881637,19.14786 112.287703,17.6006718 C112.035247,16.8898953 112.404543,16.2464482 113.090975,16.0375188 C114.75872,15.5689894 116.249119,15.1997188 117.69779,14.8464129 C119.136028,14.4917188 120.405267,14.1925541 121.616086,13.9260129 C124.043983,13.3748835 125.603234,13.0424012 127.262633,12.7529541 C128.063819,12.6120482 128.351049,12.9563306 128.56595,13.4672012 C129.038872,14.6124953 129.452679,15.7661188 129.841448,16.9738835" id="Fill-26" fill="#E30520"></path>
                <path d="M128.282058,7.58163882 C128.051856,7.13046235 127.848778,6.86669765 127.013515,6.85142706 C124.69133,6.80283882 121.988721,6.97775647 117.913247,7.57886235 C115.869251,7.87802706 113.664601,8.30074471 111.263132,8.89560353 C110.057877,9.21420353 108.863054,9.51475647 107.648758,9.92636824 C106.376737,10.3178506 105.210428,10.7377918 104.020474,11.1979918 C103.31735,11.4784153 102.896589,12.1093682 103.012037,12.6493918 C103.319437,13.9078271 103.633791,15.1732035 104.00726,16.6308506 C104.190169,17.2611094 104.914852,17.5484741 105.679177,17.2576388 C108.337972,16.2504741 111.114996,15.3828271 113.712589,14.6810741 C116.323395,13.99598 118.551692,13.4837212 120.59847,13.0332388 C124.65447,12.1537918 126.77914,11.8712859 128.956667,11.4902153 C129.451149,11.4020624 129.668832,11.08138 129.449758,10.5455212 L128.282058,7.58163882 Z" id="Fill-28" fill="#FFD300"></path>
                <path d="M125.543632,2.60113647 C125.231365,2.06944235 124.926747,2.02154824 124.521286,1.95977176 C123.05036,1.72585412 119.606377,1.75917176 116.722945,2.06458353 C115.270797,2.18674824 113.791525,2.40886588 112.171768,2.70941882 C110.563138,3.03148941 108.945467,3.39659529 107.254077,3.89566588 C106.685179,4.07197176 106.339529,4.40028941 106.561385,5.05276 C106.861134,5.93498353 107.128196,6.68324235 107.487756,7.72372471 C107.727694,8.41228941 108.323019,8.41714824 108.954509,8.22626588 C110.846196,7.66888941 112.642603,7.23992471 114.40076,6.89564235 C116.165871,6.54303059 117.732772,6.32368941 119.230126,6.12100706 C122.233875,5.76006588 124.810603,5.68301882 126.260665,5.66358353 C126.592406,5.65733647 126.817044,5.35747765 126.569455,4.97016 L125.543632,2.60113647 Z" id="Fill-30" fill="#063E85"></path>
            </g>
        </g>
    </g>
</svg>